<svg width="383" height="156" viewBox="0 0 383 156" fill="none" xmlns="http://www.w3.org/2000/svg">
<rect x="11.4922" y="4.42114" width="368" height="128" transform="rotate(3 11.4922 4.42114)" stroke="url(#paint0_linear_0_2705)" stroke-width="8" stroke-linejoin="round"/>
<path d="M43.5678 88.2147L45.4946 51.4491L77.3789 53.1201L75.4521 89.8857L66.5722 89.4203L68.1044 60.1844L53.9798 59.4442L52.4476 88.6801L43.5678 88.2147ZM81.901 102.721L83.9094 64.3974L92.0103 64.8219L91.8443 67.9896L92.0001 67.9977C92.8908 66.8988 94.0649 66.0231 95.5224 65.3705C97.0145 64.7197 98.6607 64.4414 100.461 64.5358C104.096 64.7263 106.969 66.2133 109.079 68.9969C111.226 71.7477 112.202 74.9926 112.006 78.7315C111.806 82.5396 110.51 85.7348 108.119 88.3172C105.763 90.8667 102.716 92.0435 98.9774 91.8476C97.3849 91.7641 95.8953 91.3736 94.5086 90.6761C93.1237 89.9439 92.0622 89.0031 91.324 87.8536L91.2201 87.8481L90.4173 103.167L81.901 102.721ZM97.3223 84.6791C99.2264 84.7789 100.749 84.1992 101.892 82.9399C103.034 81.6806 103.653 80.1336 103.749 78.2987C103.843 76.4985 103.388 74.9299 102.381 73.5927C101.377 72.2209 99.9231 71.4852 98.019 71.3854C96.1842 71.2892 94.6429 71.8854 93.3951 73.1738C92.1819 74.4641 91.5299 75.9747 91.4392 77.7057C91.3467 79.4713 91.8363 81.0591 92.9079 82.4691C94.0161 83.8463 95.4875 84.583 97.3223 84.6791ZM129.57 93.555C125.519 93.3427 122.19 91.9533 119.582 89.3866C117.011 86.7871 115.836 83.3756 116.057 79.1521C116.275 74.9978 117.765 71.726 120.529 69.3366C123.329 66.9145 126.737 65.8087 130.753 66.0192C134.63 66.2224 137.697 67.6502 139.953 70.3025C142.211 72.9203 143.226 76.4102 142.997 80.7722C142.948 81.7069 142.896 82.3811 142.839 82.7947L124.093 81.8123C124.159 83.2043 124.773 84.3994 125.936 85.3976C127.098 86.3958 128.459 86.9358 130.017 87.0174C132.509 87.1481 134.46 86.3477 135.87 84.6165L141.594 88.6656C138.875 92.2028 134.867 93.8326 129.57 93.555ZM124.37 76.5155L135.327 77.0898C135.402 75.6704 135.013 74.4697 134.162 73.4879C133.346 72.5078 132.124 71.9751 130.497 71.8898C128.904 71.8064 127.529 72.2203 126.37 73.1316C125.212 74.0428 124.545 75.1708 124.37 76.5155ZM147.617 93.6677L148.972 67.8072L174.521 69.1461L173.166 95.0066L164.598 94.5576L165.61 75.2401L157.198 74.7992L156.185 94.1167L147.617 93.6677ZM187.576 96.3867C186.052 96.3068 184.628 96.0065 183.301 95.4857C182.011 94.9321 180.88 93.9876 179.909 92.6523C178.937 91.317 178.501 89.6973 178.601 87.7932C178.906 81.9772 184.597 79.3595 195.676 79.9401L195.697 79.5246C195.761 78.3129 195.376 77.3729 194.543 76.7044C193.712 76.0012 192.604 75.6134 191.22 75.5408C188.866 75.4174 186.69 76.1887 184.694 77.8544L180.626 73.0069C183.859 70.2604 187.778 69.0078 192.383 69.2491C196.641 69.4722 199.63 70.7224 201.351 72.9995C203.073 75.2421 203.809 78.7521 203.559 83.5295L202.875 96.5636L195.086 96.1554L195.23 93.4032L195.075 93.395C194.397 94.401 193.367 95.1801 191.984 95.7325C190.603 96.2503 189.134 96.4683 187.576 96.3867ZM190.004 90.7861C191.701 90.875 193.041 90.4766 194.024 89.5909C195.01 88.6705 195.545 87.3968 195.63 85.7697L195.677 84.8869L194.586 84.8297C189.289 84.5521 186.579 85.5904 186.456 87.9445C186.409 88.8446 186.737 89.5387 187.44 90.0269C188.146 90.4804 189 90.7335 190.004 90.7861ZM208.579 109.36L210.587 71.0363L218.688 71.4608L218.522 74.6285L218.678 74.6366C219.569 73.5377 220.743 72.662 222.2 72.0094C223.692 71.3586 225.338 71.0803 227.139 71.1747C230.774 71.3652 233.646 72.8522 235.757 75.6358C237.904 78.3866 238.879 81.6315 238.683 85.3703C238.484 89.1785 237.188 92.3737 234.796 94.9561C232.441 97.5056 229.394 98.6824 225.655 98.4865C224.063 98.403 222.573 98.0125 221.186 97.315C219.801 96.5828 218.74 95.642 218.002 94.4925L217.898 94.487L217.095 109.806L208.579 109.36ZM224 91.318C225.904 91.4178 227.427 90.8381 228.569 89.5788C229.711 88.3195 230.331 86.7725 230.427 84.9376C230.521 83.1374 230.065 81.5688 229.059 80.2316C228.055 78.8598 226.601 78.1241 224.697 78.0243C222.862 77.9281 221.321 78.5243 220.073 79.8127C218.86 81.103 218.208 82.6136 218.117 84.3446C218.024 86.1102 218.514 87.698 219.586 89.108C220.694 90.4852 222.165 91.2219 224 91.318ZM251.117 99.7168C249.594 99.6369 248.169 99.3366 246.843 98.8158C245.553 98.2622 244.422 97.3177 243.45 95.9824C242.479 94.647 242.043 93.0273 242.143 91.1233C242.448 85.3073 248.139 82.6895 259.217 83.2701L259.239 82.8547C259.303 81.643 258.918 80.7029 258.085 80.0344C257.254 79.3313 256.146 78.9435 254.761 78.8709C252.407 78.7475 250.232 79.5187 248.235 81.1845L244.168 76.337C247.401 73.5904 251.32 72.3378 255.924 72.5791C260.182 72.8023 263.172 74.0525 264.892 76.3296C266.615 78.5722 267.351 82.0822 267.1 86.8596L266.417 99.8937L258.628 99.4855L258.772 96.7333L258.616 96.7251C257.939 97.731 256.909 98.5102 255.526 99.0626C254.145 99.5803 252.675 99.7984 251.117 99.7168ZM253.546 94.1162C255.242 94.2051 256.582 93.8067 257.566 92.9209C258.551 92.0006 259.087 90.7269 259.172 89.0998L259.218 88.217L258.128 88.1598C252.831 87.8822 250.121 88.9205 249.998 91.2746C249.951 92.1747 250.279 92.8688 250.982 93.357C251.687 93.8105 252.542 94.0636 253.546 94.1162ZM278.226 100.513L279.238 81.1951L271.501 80.7896L271.844 74.2466L295.887 75.5066L295.544 82.0497L287.807 81.6442L286.794 100.962L278.226 100.513ZM339.384 92.991C339.25 95.5529 338.425 97.714 336.909 99.4744C335.43 101.202 333.648 102.41 331.564 103.1C329.48 103.789 327.261 104.072 324.907 103.948C321.341 103.762 318.268 102.785 315.687 101.018C313.107 99.2511 311.435 96.7161 310.67 93.4129L318.883 91.7084C319.162 93.0074 319.832 94.136 320.892 95.0942C321.955 96.0177 323.282 96.5212 324.875 96.6047C326.294 96.679 327.561 96.3635 328.674 95.6582C329.787 94.9528 330.385 93.8039 330.468 92.2114C330.559 90.4804 329.897 89.2133 328.481 88.4101C327.101 87.5741 325.356 87.1008 323.244 86.9901L320.907 86.8677L321.242 80.4804L323.786 80.6138C328.079 80.8387 330.302 79.4972 330.454 76.5892C330.519 75.3429 330.121 74.3327 329.259 73.5585C328.397 72.7843 327.326 72.3637 326.045 72.2966C324.798 72.2312 323.688 72.5549 322.713 73.2675C321.775 73.9474 321.135 74.9032 320.793 76.135L312.79 73.841C313.811 70.9091 315.628 68.6958 318.241 67.2012C320.853 65.7065 323.769 65.0435 326.989 65.2123C330.52 65.3973 333.502 66.4562 335.935 68.3888C338.402 70.3233 339.549 72.9522 339.375 76.2757C339.271 78.2489 338.61 79.9327 337.392 81.3268C336.175 82.6863 334.636 83.5603 332.776 83.9488L332.768 84.1046C334.82 84.6981 336.462 85.8256 337.694 87.487C338.927 89.1138 339.491 90.9485 339.384 92.991Z" fill="url(#paint1_linear_0_2705)"/>
<path d="M43.5678 88.2147L42.5692 88.1624L42.5168 89.161L43.5155 89.2133L43.5678 88.2147ZM45.4946 51.4491L45.5469 50.4505L44.5483 50.3982L44.496 51.3968L45.4946 51.4491ZM77.3789 53.1201L78.3775 53.1725L78.4298 52.1738L77.4312 52.1215L77.3789 53.1201ZM75.4521 89.8857L75.3997 90.8843L76.3983 90.9366L76.4507 89.938L75.4521 89.8857ZM66.5722 89.4203L65.5736 89.368L65.5213 90.3666L66.5199 90.4189L66.5722 89.4203ZM68.1044 60.1844L69.1031 60.2368L69.1554 59.2381L68.1568 59.1858L68.1044 60.1844ZM53.9798 59.4442L54.0321 58.4455L53.0335 58.3932L52.9812 59.3918L53.9798 59.4442ZM52.4476 88.6801L52.3953 89.6787L53.3939 89.731L53.4463 88.7324L52.4476 88.6801ZM44.5664 88.267L46.4932 51.5015L44.496 51.3968L42.5692 88.1624L44.5664 88.267ZM45.4423 52.4478L77.3265 54.1187L77.4312 52.1215L45.5469 50.4505L45.4423 52.4478ZM76.3802 53.0678L74.4534 89.8333L76.4507 89.938L78.3775 53.1725L76.3802 53.0678ZM75.5044 88.887L66.6246 88.4217L66.5199 90.4189L75.3997 90.8843L75.5044 88.887ZM67.5709 89.4726L69.1031 60.2368L67.1058 60.1321L65.5736 89.368L67.5709 89.4726ZM68.1568 59.1858L54.0321 58.4455L53.9275 60.4428L68.0521 61.183L68.1568 59.1858ZM52.9812 59.3918L51.449 88.6277L53.4463 88.7324L54.9784 59.4965L52.9812 59.3918ZM52.5 87.6814L43.6201 87.2161L43.5155 89.2133L52.3953 89.6787L52.5 87.6814ZM81.901 102.721L80.9023 102.668L80.85 103.667L81.8486 103.719L81.901 102.721ZM83.9094 64.3974L83.9617 63.3987L82.9631 63.3464L82.9108 64.345L83.9094 64.3974ZM92.0103 64.8219L93.0089 64.8742L93.0613 63.8756L92.0626 63.8233L92.0103 64.8219ZM91.8443 67.9896L90.8457 67.9372L90.7933 68.9359L91.792 68.9882L91.8443 67.9896ZM92.0001 67.9977L91.9477 68.9964L92.4563 69.023L92.7769 68.6274L92.0001 67.9977ZM95.5224 65.3705L95.1226 64.4538L95.1137 64.4578L95.5224 65.3705ZM109.079 68.9969L108.282 69.6012L108.291 69.6122L109.079 68.9969ZM108.119 88.3172L107.385 87.6376L107.384 87.6386L108.119 88.3172ZM94.5086 90.6761L94.0412 91.5602L94.0502 91.5649L94.0593 91.5694L94.5086 90.6761ZM91.324 87.8536L92.1654 87.3132L91.8884 86.8818L91.3763 86.8549L91.324 87.8536ZM91.2201 87.8481L91.2725 86.8495L90.2738 86.7971L90.2215 87.7958L91.2201 87.8481ZM90.4173 103.167L90.3649 104.166L91.3636 104.218L91.4159 103.219L90.4173 103.167ZM101.892 82.9399L102.632 83.6117L101.892 82.9399ZM102.381 73.5927L101.575 74.1835L101.582 74.1939L102.381 73.5927ZM93.3951 73.1738L92.6767 72.4781L92.6716 72.4834L92.6666 72.4888L93.3951 73.1738ZM92.9079 82.4691L92.1118 83.0742L92.1202 83.0852L92.1288 83.096L92.9079 82.4691ZM82.8996 102.773L84.908 64.4497L82.9108 64.345L80.9023 102.668L82.8996 102.773ZM83.8571 65.396L91.958 65.8205L92.0626 63.8233L83.9617 63.3987L83.8571 65.396ZM91.0117 64.7696L90.8457 67.9372L92.8429 68.0419L93.0089 64.8742L91.0117 64.7696ZM91.792 68.9882L91.9477 68.9964L92.0524 66.9991L91.8966 66.9909L91.792 68.9882ZM92.7769 68.6274C93.5567 67.6654 94.5982 66.88 95.9311 66.2832L95.1137 64.4578C93.5316 65.1662 92.2249 66.1323 91.2232 67.368L92.7769 68.6274ZM95.9222 66.2871C97.2573 65.7048 98.7465 65.4473 100.409 65.5344L100.513 63.5372C98.5748 63.4356 96.7717 63.7346 95.1226 64.4539L95.9222 66.2871ZM100.409 65.5344C103.764 65.7102 106.358 67.0633 108.282 69.6011L109.876 68.3928C107.579 65.3634 104.428 63.7423 100.513 63.5372L100.409 65.5344ZM108.291 69.6122C110.278 72.1586 111.191 75.1618 111.007 78.6791L113.004 78.7838C113.212 74.8233 112.174 71.3369 109.868 68.3817L108.291 69.6122ZM111.007 78.6791C110.819 82.2745 109.604 85.2417 107.385 87.6376L108.852 88.9967C111.417 86.2279 112.794 82.8046 113.004 78.7838L111.007 78.6791ZM107.384 87.6386C105.248 89.951 102.498 91.0307 99.0298 90.8489L98.9251 92.8462C102.934 93.0563 106.279 91.7825 108.853 88.9957L107.384 87.6386ZM99.0298 90.8489C97.5716 90.7725 96.2177 90.4164 94.958 89.7827L94.0593 91.5694C95.573 92.3309 97.1983 92.7557 98.9251 92.8462L99.0298 90.8489ZM94.976 89.792C93.7207 89.1284 92.7977 88.2978 92.1654 87.3132L90.4825 88.3939C91.3266 89.7084 92.5267 90.7595 94.0412 91.5602L94.976 89.792ZM91.3763 86.8549L91.2725 86.8495L91.1678 88.8467L91.2716 88.8522L91.3763 86.8549ZM90.2215 87.7958L89.4187 103.115L91.4159 103.219L92.2187 87.9004L90.2215 87.7958ZM90.4696 102.168L81.9533 101.722L81.8486 103.719L90.3649 104.166L90.4696 102.168ZM97.27 85.6778C99.4329 85.7911 101.262 85.1224 102.632 83.6117L101.151 82.2681C100.237 83.276 99.0199 83.7667 97.3747 83.6805L97.27 85.6778ZM102.632 83.6117C103.942 82.1676 104.641 80.396 104.748 78.3511L102.75 78.2464C102.665 79.8711 102.125 81.1936 101.151 82.2681L102.632 83.6117ZM104.748 78.3511C104.853 76.3359 104.339 74.5314 103.181 72.9915L101.582 74.1939C102.436 75.3284 102.834 76.6612 102.75 78.2464L104.748 78.3511ZM103.188 73.002C101.984 71.3564 100.234 70.5001 98.0714 70.3867L97.9667 72.384C99.6119 72.4702 100.771 73.0855 101.575 74.1834L103.188 73.002ZM98.0714 70.3867C95.956 70.2759 94.1311 70.9764 92.6767 72.4781L94.1134 73.8695C95.1546 72.7944 96.4124 72.3025 97.9667 72.384L98.0714 70.3867ZM92.6666 72.4888C91.2952 73.9473 90.544 75.6806 90.4406 77.6533L92.4379 77.758C92.5159 76.2688 93.0686 74.9809 94.1236 73.8588L92.6666 72.4888ZM90.4406 77.6533C90.3357 79.6556 90.8973 81.4762 92.1118 83.0742L93.7041 81.864C92.7753 80.6419 92.3577 79.2869 92.4379 77.758L90.4406 77.6533ZM92.1288 83.096C93.4231 84.7046 95.1638 85.5674 97.27 85.6778L97.3747 83.6805C95.8112 83.5986 94.609 82.988 93.6871 81.8422L92.1288 83.096ZM119.582 89.3866L118.871 90.0899L118.881 90.0993L119.582 89.3866ZM120.529 69.3366L121.183 70.0931L121.183 70.0929L120.529 69.3366ZM139.953 70.3025L139.191 70.9505L139.196 70.9557L139.953 70.3025ZM142.839 82.7947L142.787 83.7933L143.706 83.8415L143.83 82.9298L142.839 82.7947ZM124.093 81.8123L124.145 80.8136L123.042 80.7558L123.094 81.8596L124.093 81.8123ZM125.936 85.3976L126.587 84.6389L125.936 85.3976ZM135.87 84.6165L136.448 83.8001L135.685 83.2605L135.095 83.985L135.87 84.6165ZM141.594 88.6656L142.387 89.2751L143.021 88.4502L142.172 87.8492L141.594 88.6656ZM124.37 76.5155L123.379 76.3868L123.24 77.4576L124.318 77.5142L124.37 76.5155ZM135.327 77.0898L135.275 78.0884L136.274 78.1407L136.326 77.1421L135.327 77.0898ZM134.162 73.4879L133.394 74.1279L133.4 74.1354L133.407 74.1428L134.162 73.4879ZM126.37 73.1316L125.752 72.3455L126.37 73.1316ZM129.622 92.5564C125.787 92.3554 122.698 91.0501 120.284 88.6739L118.881 90.0993C121.682 92.8564 125.251 94.3301 129.517 94.5536L129.622 92.5564ZM120.293 88.6833C117.951 86.316 116.847 83.1952 117.056 79.2044L115.058 79.0997C114.825 83.556 116.07 87.2582 118.871 90.0898L120.293 88.6833ZM117.056 79.2044C117.261 75.2806 118.655 72.2791 121.183 70.0931L119.875 68.5802C116.876 71.1729 115.288 74.7149 115.058 79.0997L117.056 79.2044ZM121.183 70.0929C123.77 67.8552 126.918 66.8196 130.7 67.0178L130.805 65.0205C126.555 64.7978 122.888 65.9739 119.875 68.5804L121.183 70.0929ZM130.7 67.0178C134.338 67.2084 137.135 68.5327 139.191 70.9505L140.715 69.6546C138.259 66.7676 134.922 65.2363 130.805 65.0205L130.7 67.0178ZM139.196 70.9557C141.244 73.3304 142.217 76.5444 141.999 80.7199L143.996 80.8246C144.234 76.276 143.178 72.5103 140.71 69.6494L139.196 70.9557ZM141.999 80.7199C141.95 81.6522 141.899 82.2905 141.848 82.6596L143.83 82.9298C143.892 82.4717 143.947 81.7616 143.996 80.8246L141.999 80.7199ZM142.891 81.7961L124.145 80.8136L124.041 82.8109L142.787 83.7933L142.891 81.7961ZM123.094 81.8596C123.174 83.5554 123.936 84.9987 125.284 86.1564L126.587 84.6389C125.61 83.8001 125.143 82.8532 125.092 81.765L123.094 81.8596ZM125.284 86.1564C126.618 87.3013 128.19 87.9231 129.964 88.0161L130.069 86.0188C128.727 85.9485 127.579 85.4904 126.587 84.6389L125.284 86.1564ZM129.964 88.0161C132.732 88.1611 135.008 87.2585 136.646 85.248L135.095 83.985C133.912 85.437 132.286 86.135 130.069 86.0188L129.964 88.0161ZM135.293 85.4329L141.017 89.482L142.172 87.8492L136.448 83.8001L135.293 85.4329ZM140.801 88.0561C138.322 91.2807 134.661 92.8205 129.622 92.5564L129.517 94.5536C135.072 94.8447 139.427 93.1249 142.387 89.2751L140.801 88.0561ZM124.318 77.5142L135.275 78.0884L135.38 76.0911L124.423 75.5169L124.318 77.5142ZM136.326 77.1421C136.413 75.4909 135.955 74.0294 134.918 72.8329L133.407 74.1428C134.072 74.9101 134.391 75.8499 134.329 77.0374L136.326 77.1421ZM134.931 72.8478C133.889 71.5979 132.373 70.9868 130.549 70.8912L130.445 72.8885C131.875 72.9634 132.802 73.4177 133.394 74.1279L134.931 72.8478ZM130.549 70.8912C128.736 70.7962 127.117 71.2718 125.752 72.3455L126.988 73.9176C127.941 73.1688 129.073 72.8166 130.445 72.8885L130.549 70.8912ZM125.752 72.3455C124.407 73.4031 123.59 74.7587 123.379 76.3868L125.362 76.6443C125.5 75.5829 126.016 74.6825 126.988 73.9176L125.752 72.3455ZM147.617 93.6677L146.619 93.6153L146.566 94.614L147.565 94.6663L147.617 93.6677ZM148.972 67.8072L149.025 66.8085L148.026 66.7562L147.974 67.7548L148.972 67.8072ZM174.521 69.1461L175.52 69.1985L175.572 68.1998L174.574 68.1475L174.521 69.1461ZM173.166 95.0066L173.114 96.0053L174.112 96.0576L174.165 95.059L173.166 95.0066ZM164.598 94.5576L163.599 94.5053L163.547 95.5039L164.546 95.5562L164.598 94.5576ZM165.61 75.2401L166.609 75.2924L166.661 74.2938L165.663 74.2415L165.61 75.2401ZM157.198 74.7992L157.25 73.8006L156.252 73.7483L156.199 74.7469L157.198 74.7992ZM156.185 94.1167L156.133 95.1154L157.132 95.1677L157.184 94.1691L156.185 94.1167ZM148.616 93.72L149.971 67.8595L147.974 67.7548L146.619 93.6153L148.616 93.72ZM148.92 68.8058L174.469 70.1448L174.574 68.1475L149.025 66.8085L148.92 68.8058ZM173.523 69.0938L172.167 94.9543L174.165 95.059L175.52 69.1985L173.523 69.0938ZM173.218 94.008L164.65 93.559L164.546 95.5562L173.114 96.0053L173.218 94.008ZM165.597 94.6099L166.609 75.2924L164.612 75.1878L163.599 94.5053L165.597 94.6099ZM165.663 74.2415L157.25 73.8006L157.145 75.7979L165.558 76.2387L165.663 74.2415ZM156.199 74.7469L155.187 94.0644L157.184 94.1691L158.196 74.8516L156.199 74.7469ZM156.238 93.1181L147.67 92.6691L147.565 94.6663L156.133 95.1154L156.238 93.1181ZM183.301 95.4857L182.907 96.4047L182.921 96.4108L182.936 96.4166L183.301 95.4857ZM195.676 79.9401L195.623 80.9387L196.622 80.991L196.674 79.9924L195.676 79.9401ZM194.543 76.7044L193.897 77.4678L193.907 77.4761L193.917 77.4842L194.543 76.7044ZM184.694 77.8544L183.928 78.4973L184.569 79.2611L185.334 78.6223L184.694 77.8544ZM180.626 73.0069L179.978 72.2447L179.221 72.8883L179.86 73.6497L180.626 73.0069ZM201.351 72.9995L200.553 73.6024L200.558 73.6087L201.351 72.9995ZM202.875 96.5636L202.823 97.5623L203.822 97.6146L203.874 96.616L202.875 96.5636ZM195.086 96.1554L194.087 96.1031L194.035 97.1017L195.034 97.1541L195.086 96.1554ZM195.23 93.4032L196.229 93.4555L196.281 92.4569L195.283 92.4046L195.23 93.4032ZM195.075 93.395L195.127 92.3964L194.562 92.3668L194.245 92.8364L195.075 93.395ZM191.984 95.7325L192.335 96.6688L192.345 96.6651L192.355 96.6611L191.984 95.7325ZM194.024 89.5909L194.693 90.334L194.7 90.3279L194.707 90.3217L194.024 89.5909ZM195.677 84.8869L196.675 84.9392L196.728 83.9406L195.729 83.8883L195.677 84.8869ZM187.44 90.0269L186.87 90.8484L186.885 90.8585L186.899 90.868L187.44 90.0269ZM187.628 95.388C186.205 95.3134 184.886 95.0337 183.666 94.5549L182.936 96.4166C184.369 96.9793 185.9 97.3002 187.523 97.3853L187.628 95.388ZM183.695 94.5668C182.598 94.0957 181.602 93.2797 180.717 92.064L179.1 93.2406C180.158 94.6955 181.424 95.7685 182.907 96.4047L183.695 94.5668ZM180.717 92.064C179.901 90.9422 179.51 89.5578 179.6 87.8455L177.603 87.7409C177.493 89.8367 177.973 91.6918 179.1 93.2406L180.717 92.064ZM179.6 87.8455C179.667 86.5566 180.029 85.491 180.655 84.6103C181.284 83.7259 182.219 82.9731 183.516 82.3764C186.141 81.169 190.139 80.6513 195.623 80.9387L195.728 78.9414C190.134 78.6483 185.747 79.1491 182.681 80.5594C181.132 81.2715 179.895 82.2274 179.025 83.4514C178.152 84.6792 177.687 86.1218 177.603 87.7409L179.6 87.8455ZM196.674 79.9924L196.696 79.577L194.699 79.4723L194.677 79.8877L196.674 79.9924ZM196.696 79.577C196.774 78.0945 196.29 76.824 195.169 75.9245L193.917 77.4842C194.463 77.9218 194.748 78.5314 194.699 79.4723L196.696 79.577ZM195.189 75.941C194.151 75.062 192.815 74.623 191.272 74.5422L191.167 76.5394C192.394 76.6037 193.274 76.9404 193.897 77.4678L195.189 75.941ZM191.272 74.5422C188.639 74.4042 186.222 75.2773 184.053 77.0866L185.334 78.6223C187.159 77.1 189.092 76.4307 191.167 76.5394L191.272 74.5422ZM185.46 77.2116L181.392 72.3641L179.86 73.6497L183.928 78.4973L185.46 77.2116ZM181.273 73.7691C184.294 71.2028 187.957 70.0185 192.33 70.2477L192.435 68.2504C187.6 67.997 183.424 69.318 179.978 72.2447L181.273 73.7691ZM192.33 70.2477C196.442 70.4632 199.084 71.6578 200.553 73.6024L202.148 72.3967C200.177 69.787 196.84 68.4813 192.435 68.2504L192.33 70.2477ZM200.558 73.6087C202.063 75.5694 202.806 78.7864 202.56 83.4772L204.557 83.5819C204.812 78.7178 204.082 74.9148 202.144 72.3904L200.558 73.6087ZM202.56 83.4772L201.877 96.5113L203.874 96.616L204.557 83.5819L202.56 83.4772ZM202.928 95.565L195.138 95.1568L195.034 97.1541L202.823 97.5623L202.928 95.565ZM196.085 96.2078L196.229 93.4555L194.232 93.3509L194.087 96.1031L196.085 96.2078ZM195.283 92.4046L195.127 92.3964L195.022 94.3937L195.178 94.4018L195.283 92.4046ZM194.245 92.8364C193.703 93.6411 192.852 94.3088 191.613 94.8038L192.355 96.6611C193.881 96.0514 195.091 95.1608 195.904 93.9537L194.245 92.8364ZM191.633 94.7961C190.388 95.2629 189.057 95.4629 187.628 95.388L187.523 97.3853C189.211 97.4737 190.818 97.2376 192.335 96.6688L191.633 94.7961ZM189.952 91.7847C191.834 91.8834 193.461 91.4437 194.693 90.334L193.355 88.8477C192.62 89.5095 191.567 89.8666 190.057 89.7875L189.952 91.7847ZM194.707 90.3217C195.92 89.1891 196.533 87.6505 196.629 85.822L194.632 85.7173C194.557 87.1431 194.1 88.1519 193.342 88.86L194.707 90.3217ZM196.629 85.822L196.675 84.9392L194.678 84.8346L194.632 85.7173L196.629 85.822ZM195.729 83.8883L194.639 83.8311L194.534 85.8284L195.624 85.8855L195.729 83.8883ZM194.639 83.8311C191.947 83.6901 189.776 83.8714 188.223 84.4664C187.435 84.7685 186.759 85.1949 186.266 85.7846C185.764 86.3861 185.499 87.1029 185.457 87.8922L187.455 87.9968C187.475 87.6091 187.595 87.3133 187.801 87.0667C188.017 86.8083 188.372 86.5511 188.939 86.334C190.096 85.8908 191.928 85.6918 194.534 85.8284L194.639 83.8311ZM185.457 87.8922C185.393 89.116 185.865 90.1505 186.87 90.8484L188.011 89.2053C187.609 88.9269 187.424 88.5732 187.455 87.9968L185.457 87.8922ZM186.899 90.868C187.778 91.4327 188.809 91.7248 189.952 91.7847L190.057 89.7875C189.192 89.7421 188.514 89.5281 187.981 89.1858L186.899 90.868ZM208.579 109.36L207.58 109.307L207.528 110.306L208.526 110.358L208.579 109.36ZM210.587 71.0363L210.639 70.0376L209.641 69.9853L209.589 70.9839L210.587 71.0363ZM218.688 71.4608L219.687 71.5131L219.739 70.5145L218.74 70.4622L218.688 71.4608ZM218.522 74.6285L217.523 74.5761L217.471 75.5748L218.47 75.6271L218.522 74.6285ZM218.678 74.6366L218.625 75.6353L219.134 75.6619L219.455 75.2663L218.678 74.6366ZM222.2 72.0094L221.8 71.0927L221.791 71.0967L222.2 72.0094ZM235.757 75.6358L234.96 76.2401L234.969 76.2511L235.757 75.6358ZM234.796 94.9561L234.063 94.2765L234.062 94.2775L234.796 94.9561ZM221.186 97.315L220.719 98.1991L220.728 98.2038L220.737 98.2083L221.186 97.315ZM218.002 94.4925L218.843 93.9521L218.566 93.5207L218.054 93.4938L218.002 94.4925ZM217.898 94.487L217.95 93.4884L216.952 93.436L216.899 94.4347L217.898 94.487ZM217.095 109.806L217.043 110.805L218.041 110.857L218.094 109.858L217.095 109.806ZM228.569 89.5788L229.31 90.2506L228.569 89.5788ZM229.059 80.2316L228.252 80.8224L228.26 80.8328L229.059 80.2316ZM220.073 79.8127L219.354 79.117L219.349 79.1223L219.344 79.1277L220.073 79.8127ZM219.586 89.108L218.79 89.7131L218.798 89.7241L218.807 89.7348L219.586 89.108ZM209.577 109.412L211.586 71.0886L209.589 70.9839L207.58 109.307L209.577 109.412ZM210.535 72.0349L218.636 72.4594L218.74 70.4622L210.639 70.0376L210.535 72.0349ZM217.689 71.4085L217.523 74.5761L219.521 74.6808L219.687 71.5131L217.689 71.4085ZM218.47 75.6271L218.625 75.6353L218.73 73.638L218.574 73.6298L218.47 75.6271ZM219.455 75.2663C220.234 74.3043 221.276 73.5189 222.609 72.9221L221.791 71.0967C220.209 71.8051 218.903 72.7712 217.901 74.0069L219.455 75.2663ZM222.6 72.926C223.935 72.3437 225.424 72.0862 227.086 72.1733L227.191 70.1761C225.253 70.0745 223.449 70.3735 221.8 71.0928L222.6 72.926ZM227.086 72.1733C230.441 72.3491 233.036 73.7022 234.96 76.24L236.554 75.0317C234.257 72.0023 231.106 70.3812 227.191 70.1761L227.086 72.1733ZM234.969 76.2511C236.956 78.7975 237.869 81.8007 237.685 85.318L239.682 85.4227C239.89 81.4622 238.852 77.9758 236.545 75.0206L234.969 76.2511ZM237.685 85.318C237.496 88.9134 236.282 91.8806 234.063 94.2765L235.53 95.6356C238.095 92.8668 239.471 89.4435 239.682 85.4227L237.685 85.318ZM234.062 94.2775C231.926 96.5899 229.176 97.6696 225.707 97.4878L225.603 99.4851C229.612 99.6952 232.957 98.4214 235.531 95.6346L234.062 94.2775ZM225.707 97.4878C224.249 97.4114 222.895 97.0553 221.636 96.4216L220.737 98.2083C222.251 98.9698 223.876 99.3946 225.603 99.4851L225.707 97.4878ZM221.654 96.4309C220.398 95.7673 219.475 94.9367 218.843 93.9521L217.16 95.0328C218.004 96.3473 219.204 97.3984 220.719 98.1991L221.654 96.4309ZM218.054 93.4938L217.95 93.4884L217.846 95.4856L217.949 95.4911L218.054 93.4938ZM216.899 94.4347L216.096 109.754L218.094 109.858L218.896 94.5393L216.899 94.4347ZM217.147 108.807L208.631 108.361L208.526 110.358L217.043 110.805L217.147 108.807ZM223.948 92.3167C226.111 92.43 227.94 91.7613 229.31 90.2506L227.829 88.907C226.914 89.9149 225.698 90.4056 224.052 90.3194L223.948 92.3167ZM229.31 90.2506C230.62 88.8065 231.318 87.0349 231.425 84.99L229.428 84.8853C229.343 86.51 228.803 87.8325 227.829 88.907L229.31 90.2506ZM231.425 84.99C231.531 82.9748 231.017 81.1703 229.858 79.6304L228.26 80.8328C229.114 81.9673 229.511 83.3001 229.428 84.8853L231.425 84.99ZM229.866 79.6409C228.661 77.9953 226.912 77.139 224.749 77.0256L224.644 79.0229C226.29 79.1091 227.449 79.7244 228.252 80.8223L229.866 79.6409ZM224.749 77.0256C222.634 76.9148 220.809 77.6153 219.354 79.117L220.791 80.5084C221.832 79.4333 223.09 78.9414 224.644 79.0229L224.749 77.0256ZM219.344 79.1277C217.973 80.5862 217.222 82.3195 217.118 84.2922L219.116 84.3969C219.194 82.9077 219.746 81.6198 220.801 80.4977L219.344 79.1277ZM217.118 84.2922C217.013 86.2945 217.575 88.1151 218.79 89.7131L220.382 88.5029C219.453 87.2808 219.035 85.9258 219.116 84.3969L217.118 84.2922ZM218.807 89.7348C220.101 91.3435 221.842 92.2063 223.948 92.3167L224.052 90.3194C222.489 90.2375 221.287 89.6269 220.365 88.4811L218.807 89.7348ZM246.843 98.8158L246.448 99.7348L246.463 99.7409L246.477 99.7466L246.843 98.8158ZM259.217 83.2701L259.165 84.2688L260.164 84.3211L260.216 83.3225L259.217 83.2701ZM258.085 80.0344L257.439 80.7978L257.449 80.8062L257.459 80.8143L258.085 80.0344ZM248.235 81.1845L247.469 81.8273L248.11 82.5912L248.876 81.9524L248.235 81.1845ZM244.168 76.337L243.52 75.5748L242.763 76.2183L243.401 76.9798L244.168 76.337ZM264.892 76.3296L264.094 76.9325L264.099 76.9387L264.892 76.3296ZM266.417 99.8937L266.365 100.892L267.363 100.945L267.416 99.9461L266.417 99.8937ZM258.628 99.4855L257.629 99.4332L257.577 100.432L258.575 100.484L258.628 99.4855ZM258.772 96.7333L259.771 96.7856L259.823 95.787L258.824 95.7347L258.772 96.7333ZM258.616 96.7251L258.669 95.7265L258.103 95.6969L257.787 96.1665L258.616 96.7251ZM255.526 99.0626L255.877 99.9989L255.887 99.9952L255.897 99.9912L255.526 99.0626ZM257.566 92.9209L258.235 93.6641L258.242 93.658L258.248 93.6518L257.566 92.9209ZM259.218 88.217L260.217 88.2693L260.269 87.2707L259.271 87.2183L259.218 88.217ZM250.982 93.357L250.412 94.1785L250.426 94.1885L250.441 94.198L250.982 93.357ZM251.17 98.7181C249.746 98.6435 248.428 98.3638 247.208 97.885L246.477 99.7466C247.911 100.309 249.442 100.63 251.065 100.715L251.17 98.7181ZM247.237 97.8968C246.139 97.4258 245.143 96.6098 244.259 95.3941L242.642 96.5707C243.7 98.0256 244.966 99.0986 246.448 99.7348L247.237 97.8968ZM244.259 95.3941C243.443 94.2722 243.052 92.8879 243.142 91.1756L241.144 91.071C241.034 93.1668 241.515 95.0218 242.642 96.5707L244.259 95.3941ZM243.142 91.1756C243.209 89.8867 243.57 88.8211 244.196 87.9404C244.825 87.056 245.761 86.3032 247.058 85.7065C249.683 84.4991 253.681 83.9813 259.165 84.2688L259.27 82.2715C253.676 81.9783 249.289 82.4791 246.222 83.8895C244.674 84.6016 243.437 85.5575 242.566 86.7815C241.694 88.0093 241.229 89.4519 241.144 91.071L243.142 91.1756ZM260.216 83.3225L260.238 82.907L258.24 82.8024L258.219 83.2178L260.216 83.3225ZM260.238 82.907C260.315 81.4246 259.832 80.1541 258.711 79.2546L257.459 80.8143C258.004 81.2518 258.29 81.8615 258.24 82.8024L260.238 82.907ZM258.731 79.271C257.692 78.3921 256.356 77.9531 254.814 77.8723L254.709 79.8695C255.936 79.9338 256.816 80.2705 257.439 80.7978L258.731 79.271ZM254.814 77.8723C252.181 77.7343 249.763 78.6074 247.595 80.4167L248.876 81.9524C250.701 80.4301 252.634 79.7608 254.709 79.8695L254.814 77.8723ZM249.001 80.5417L244.934 75.6942L243.401 76.9798L247.469 81.8273L249.001 80.5417ZM244.815 77.0992C247.836 74.5329 251.498 73.3486 255.872 73.5778L255.977 71.5805C251.142 71.3271 246.966 72.648 243.52 75.5748L244.815 77.0992ZM255.872 73.5778C259.984 73.7932 262.625 74.9879 264.094 76.9325L265.69 75.7268C263.718 73.117 260.381 71.8113 255.977 71.5805L255.872 73.5778ZM264.099 76.9387C265.605 78.8995 266.347 82.1165 266.102 86.8073L268.099 86.9119C268.354 82.0478 267.624 78.2448 265.685 75.7205L264.099 76.9387ZM266.102 86.8073L265.419 99.8414L267.416 99.9461L268.099 86.9119L266.102 86.8073ZM266.469 98.8951L258.68 98.4869L258.575 100.484L266.365 100.892L266.469 98.8951ZM259.626 99.5378L259.771 96.7856L257.773 96.6809L257.629 99.4332L259.626 99.5378ZM258.824 95.7347L258.669 95.7265L258.564 97.7237L258.72 97.7319L258.824 95.7347ZM257.787 96.1665C257.245 96.9712 256.394 97.6389 255.155 98.1339L255.897 99.9912C257.423 99.3815 258.633 98.4908 259.446 97.2838L257.787 96.1665ZM255.175 98.1262C253.93 98.593 252.598 98.793 251.17 98.7181L251.065 100.715C252.752 100.804 254.36 100.568 255.877 99.9989L255.175 98.1262ZM253.494 95.1148C255.376 95.2135 257.003 94.7738 258.235 93.6641L256.897 92.1778C256.162 92.8396 255.108 93.1967 253.598 93.1175L253.494 95.1148ZM258.248 93.6518C259.461 92.5191 260.075 90.9806 260.171 89.1521L258.173 89.0474C258.099 90.4732 257.642 91.482 256.883 92.1901L258.248 93.6518ZM260.171 89.1521L260.217 88.2693L258.22 88.1646L258.173 89.0474L260.171 89.1521ZM259.271 87.2183L258.18 87.1612L258.076 89.1584L259.166 89.2156L259.271 87.2183ZM258.18 87.1612C255.489 87.0201 253.318 87.2015 251.765 87.7965C250.977 88.0986 250.3 88.525 249.808 89.1147C249.305 89.7162 249.04 90.433 248.999 91.2222L250.996 91.3269C251.017 90.9391 251.137 90.6433 251.343 90.3968C251.559 90.1384 251.914 89.8812 252.481 89.6641C253.638 89.2209 255.47 89.0219 258.076 89.1584L258.18 87.1612ZM248.999 91.2222C248.935 92.4461 249.406 93.4806 250.412 94.1785L251.552 92.5354C251.151 92.257 250.966 91.9033 250.996 91.3269L248.999 91.2222ZM250.441 94.198C251.319 94.7628 252.35 95.0549 253.494 95.1148L253.598 93.1175C252.733 93.0722 252.055 92.8582 251.523 92.5159L250.441 94.198ZM278.226 100.513L277.227 100.46L277.175 101.459L278.174 101.511L278.226 100.513ZM279.238 81.1951L280.237 81.2474L280.289 80.2488L279.291 80.1965L279.238 81.1951ZM271.501 80.7896L270.502 80.7373L270.45 81.7359L271.449 81.7882L271.501 80.7896ZM271.844 74.2466L271.896 73.248L270.898 73.1956L270.845 74.1943L271.844 74.2466ZM295.887 75.5066L296.886 75.559L296.938 74.5603L295.939 74.508L295.887 75.5066ZM295.544 82.0497L295.492 83.0483L296.49 83.1006L296.543 82.102L295.544 82.0497ZM287.807 81.6442L287.859 80.6455L286.86 80.5932L286.808 81.5918L287.807 81.6442ZM286.794 100.962L286.742 101.96L287.741 102.013L287.793 101.014L286.794 100.962ZM279.225 100.565L280.237 81.2474L278.24 81.1428L277.227 100.46L279.225 100.565ZM279.291 80.1965L271.553 79.791L271.449 81.7882L279.186 82.1937L279.291 80.1965ZM272.5 80.8419L272.843 74.2989L270.845 74.1943L270.502 80.7373L272.5 80.8419ZM271.792 75.2452L295.835 76.5053L295.939 74.508L271.896 73.248L271.792 75.2452ZM294.888 75.4543L294.545 81.9973L296.543 82.102L296.886 75.559L294.888 75.4543ZM295.596 81.051L287.859 80.6455L287.754 82.6428L295.492 83.0483L295.596 81.051ZM286.808 81.5918L285.796 100.909L287.793 101.014L288.805 81.6965L286.808 81.5918ZM286.847 99.963L278.278 99.514L278.174 101.511L286.742 101.96L286.847 99.963ZM336.909 99.4744L336.151 98.822L336.15 98.8241L336.909 99.4744ZM331.564 103.1L331.25 102.15L331.564 103.1ZM315.687 101.018L315.122 101.843L315.687 101.018ZM310.67 93.4129L310.467 92.4337L309.466 92.6416L309.696 93.6383L310.67 93.4129ZM318.883 91.7084L319.861 91.4983L319.652 90.5274L318.68 90.7292L318.883 91.7084ZM320.892 95.0942L320.222 95.8362L320.229 95.8426L320.236 95.8489L320.892 95.0942ZM328.674 95.6582L329.209 96.5028L328.674 95.6582ZM328.481 88.4101L327.962 89.2653L327.975 89.2728L327.987 89.2799L328.481 88.4101ZM320.907 86.8677L319.908 86.8153L319.856 87.8139L320.855 87.8663L320.907 86.8677ZM321.242 80.4804L321.294 79.4818L320.295 79.4295L320.243 80.4281L321.242 80.4804ZM329.259 73.5585L328.591 74.3025L329.259 73.5585ZM322.713 73.2675L323.3 74.0773L323.304 74.0748L322.713 73.2675ZM320.793 76.135L320.517 77.0962L321.486 77.374L321.756 76.4027L320.793 76.135ZM312.79 73.841L311.845 73.512L311.497 74.5108L312.514 74.8023L312.79 73.841ZM318.241 67.2011L318.737 68.0691L318.241 67.2011ZM335.935 68.3888L335.313 69.1718L335.318 69.1758L335.935 68.3888ZM337.392 81.3268L338.137 81.9938L338.145 81.9849L337.392 81.3268ZM332.776 83.9488L332.572 82.9699L331.818 83.1274L331.777 83.8965L332.776 83.9488ZM332.768 84.1046L331.769 84.0523L331.728 84.8447L332.49 85.0652L332.768 84.1046ZM337.694 87.487L336.89 88.0827L336.897 88.0914L337.694 87.487ZM338.385 92.9387C338.261 95.3038 337.507 97.247 336.151 98.822L337.667 100.127C339.342 98.1809 340.238 95.802 340.383 93.0434L338.385 92.9387ZM336.15 98.8241C334.784 100.418 333.155 101.52 331.25 102.15L331.878 104.049C334.142 103.301 336.076 101.986 337.669 100.125L336.15 98.8241ZM331.25 102.15C329.292 102.798 327.198 103.067 324.959 102.95L324.854 104.947C327.323 105.076 329.667 104.78 331.878 104.049L331.25 102.15ZM324.959 102.95C321.55 102.771 318.66 101.842 316.252 100.193L315.122 101.843C317.875 103.728 321.131 104.752 324.854 104.947L324.959 102.95ZM316.252 100.193C313.897 98.58 312.358 96.2689 311.645 93.1875L309.696 93.6383C310.512 97.1632 312.317 99.9222 315.122 101.843L316.252 100.193ZM310.874 94.392L319.086 92.6875L318.68 90.7292L310.467 92.4337L310.874 94.392ZM317.905 91.9184C318.232 93.4385 319.018 94.7486 320.222 95.8362L321.563 94.3521C320.645 93.5234 320.092 92.5763 319.861 91.4983L317.905 91.9184ZM320.236 95.8489C321.489 96.938 323.038 97.5098 324.823 97.6033L324.927 95.606C323.526 95.5326 322.42 95.0974 321.549 94.3394L320.236 95.8489ZM324.823 97.6033C326.432 97.6876 327.907 97.3281 329.209 96.5028L328.138 94.8135C327.214 95.399 326.157 95.6705 324.927 95.606L324.823 97.6033ZM329.209 96.5028C330.655 95.5865 331.371 94.1028 331.467 92.2637L329.47 92.159C329.399 93.5049 328.919 94.3191 328.138 94.8135L329.209 96.5028ZM331.467 92.2637C331.52 91.2573 331.356 90.3223 330.926 89.4995C330.493 88.6728 329.826 88.0233 328.974 87.5403L327.987 89.2799C328.552 89.6002 328.923 89.9859 329.153 90.4262C329.386 90.8704 329.508 91.4345 329.47 92.159L331.467 92.2637ZM328.999 87.5549C327.441 86.6109 325.523 86.1082 323.296 85.9915L323.191 87.9887C325.188 88.0934 326.761 88.5373 327.962 89.2653L328.999 87.5549ZM323.296 85.9915L320.959 85.869L320.855 87.8663L323.191 87.9887L323.296 85.9915ZM321.906 86.92L322.24 80.5328L320.243 80.4281L319.908 86.8153L321.906 86.92ZM321.189 81.479L323.734 81.6124L323.839 79.6151L321.294 79.4818L321.189 81.479ZM323.734 81.6124C325.962 81.7292 327.828 81.4543 329.19 80.6325C330.623 79.7673 331.362 78.3797 331.453 76.6416L329.455 76.5369C329.394 77.7068 328.945 78.4439 328.156 78.9202C327.295 79.4399 325.904 79.7234 323.839 79.6151L323.734 81.6124ZM331.453 76.6416C331.532 75.1202 331.033 73.8078 329.927 72.8145L328.591 74.3025C329.209 74.8576 329.506 75.5657 329.455 76.5369L331.453 76.6416ZM329.927 72.8145C328.877 71.871 327.58 71.3757 326.097 71.2979L325.992 73.2952C327.071 73.3517 327.917 73.6977 328.591 74.3025L329.927 72.8145ZM326.097 71.2979C324.629 71.221 323.29 71.607 322.123 72.4603L323.304 74.0748C324.086 73.5029 324.967 73.2415 325.992 73.2952L326.097 71.2979ZM322.127 72.4578C320.986 73.2843 320.225 74.4413 319.829 75.8672L321.756 76.4027C322.044 75.365 322.564 74.6104 323.3 74.0773L322.127 72.4578ZM321.068 75.1737L313.065 72.8797L312.514 74.8023L320.517 77.0962L321.068 75.1737ZM313.734 74.17C314.679 71.458 316.341 69.4399 318.737 68.0691L317.744 66.3332C314.915 67.9517 312.943 70.3602 311.845 73.512L313.734 74.17ZM318.737 68.0691C321.171 66.6767 323.894 66.0515 326.936 66.2109L327.041 64.2136C323.644 64.0356 320.535 64.7363 317.744 66.3332L318.737 68.0691ZM326.936 66.2109C330.29 66.3866 333.065 67.3859 335.313 69.1718L336.557 67.6058C333.939 65.5264 330.75 64.408 327.041 64.2136L326.936 66.2109ZM335.318 69.1758C337.511 70.8952 338.534 73.2015 338.376 76.2233L340.373 76.328C340.563 72.7029 339.294 69.7514 336.552 67.6018L335.318 69.1758ZM338.376 76.2233C338.284 77.9889 337.7 79.455 336.639 80.6687L338.145 81.9849C339.521 80.4103 340.259 78.509 340.373 76.328L338.376 76.2233ZM336.646 80.6599C335.578 81.8534 334.232 82.6231 332.572 82.9699L332.98 84.9277C335.04 84.4975 336.771 83.5192 338.137 81.9937L336.646 80.6599ZM331.777 83.8965L331.769 84.0523L333.767 84.1569L333.775 84.0012L331.777 83.8965ZM332.49 85.0652C334.339 85.6 335.793 86.6032 336.89 88.0827L338.497 86.8914C337.13 85.048 335.3 83.7962 333.046 83.144L332.49 85.0652ZM336.897 88.0914C337.988 89.5296 338.48 91.1316 338.385 92.9387L340.383 93.0434C340.502 90.7654 339.867 88.6981 338.49 86.8827L336.897 88.0914Z" fill="url(#paint2_linear_0_2705)"/>
<defs>
<linearGradient id="paint0_linear_0_2705" x1="15.2773" y1="8.625" x2="15.2773" y2="128.625" gradientUnits="userSpaceOnUse">
<stop stop-color="#FFB903"/>
<stop offset="1" stop-color="#FFCA01"/>
</linearGradient>
<linearGradient id="paint1_linear_0_2705" x1="15.2773" y1="8.625" x2="9.05412" y2="127.371" gradientUnits="userSpaceOnUse">
<stop stop-color="#FFB903"/>
<stop offset="1" stop-color="#FFCA01"/>
</linearGradient>
<linearGradient id="paint2_linear_0_2705" x1="15.2773" y1="8.625" x2="9.05412" y2="127.371" gradientUnits="userSpaceOnUse">
<stop stop-color="#FFB903"/>
<stop offset="1" stop-color="#FFCA01"/>
</linearGradient>
</defs>
</svg>
