<svg width="384" height="162" viewBox="0 0 384 162" fill="none" xmlns="http://www.w3.org/2000/svg">
<rect x="3.86744" y="29.9528" width="368" height="128" transform="rotate(-4 3.86744 29.9528)" stroke="#8049C7" stroke-width="8" stroke-linejoin="round"/>
<path d="M45.9159 109.213L43.3477 72.4864L75.1979 70.2593L77.7661 106.986L68.8957 107.606L66.8535 78.4012L52.744 79.3878L54.7862 108.592L45.9159 109.213ZM85.7311 118.939L83.0541 80.6566L91.1464 80.0907L91.3677 83.255L91.5233 83.2441C92.2734 82.0448 93.3321 81.0325 94.6992 80.2071C96.1008 79.3794 97.7008 78.9026 99.4991 78.7768C103.13 78.5229 106.163 79.6488 108.597 82.1544C111.063 84.6231 112.427 87.7248 112.688 91.4597C112.954 95.2638 112.057 98.5931 109.998 101.448C107.971 104.265 105.09 105.805 101.355 106.066C99.7644 106.177 98.2383 105.971 96.7769 105.448C95.3131 104.89 94.1448 104.085 93.272 103.034L93.1683 103.042L94.2383 118.344L85.7311 118.939ZM98.8388 99.1525C100.741 99.0195 102.182 98.2585 103.162 96.8694C104.142 95.4803 104.568 93.8693 104.44 92.0365C104.314 90.2382 103.671 88.7368 102.509 87.5322C101.345 86.293 99.8122 85.74 97.9102 85.873C96.0774 86.0011 94.6202 86.7807 93.5387 88.2116C92.4918 89.6401 92.0288 91.2189 92.1497 92.948C92.273 94.7117 92.9525 96.228 94.188 97.4969C95.4557 98.7288 97.006 99.2807 98.8388 99.1525ZM131.928 104.032C127.881 104.315 124.408 103.342 121.507 101.112C118.637 98.8454 117.055 95.6025 116.76 91.3835C116.47 87.2336 117.551 83.8045 120.003 81.0962C122.486 78.3509 125.734 76.838 129.746 76.5575C133.619 76.2867 136.837 77.3301 139.4 79.6877C141.96 82.0108 143.392 85.351 143.697 89.7084C143.762 90.6421 143.792 91.3177 143.787 91.7351L125.06 93.0445C125.295 94.4181 126.051 95.5295 127.326 96.3786C128.602 97.2277 130.018 97.5978 131.574 97.489C134.064 97.3149 135.903 96.2827 137.092 94.3925L143.266 97.7139C140.998 101.556 137.219 103.662 131.928 104.032ZM124.69 87.7534L135.636 86.9881C135.537 85.5702 135.005 84.4258 134.04 83.555C133.11 82.6817 131.833 82.3019 130.207 82.4156C128.617 82.5268 127.302 83.1053 126.263 84.151C125.224 85.1967 124.7 86.3975 124.69 87.7534ZM149.854 101.945L148.048 76.1118L173.569 74.3271L175.376 100.16L166.817 100.759L165.467 81.4617L157.064 82.0493L158.413 101.346L149.854 101.945ZM189.846 99.7737C188.325 99.8801 186.874 99.7557 185.494 99.4004C184.146 99.0081 182.908 98.2085 181.781 97.0015C180.654 95.7945 180.024 94.24 179.891 92.338C179.485 86.5282 184.815 83.2364 195.881 82.4625L195.852 82.0475C195.768 80.8372 195.271 79.951 194.363 79.3889C193.453 78.7923 192.306 78.5424 190.923 78.6391C188.571 78.8036 186.506 79.8341 184.727 81.7308L180.099 77.4152C182.974 74.295 186.711 72.5742 191.31 72.2525C195.564 71.9551 198.683 72.8316 200.668 74.8821C202.651 76.8981 203.809 80.2922 204.143 85.0646L205.053 98.0848L197.272 98.6289L197.08 95.8796L196.925 95.8905C196.375 96.9715 195.447 97.8703 194.142 98.5871C192.834 99.2693 191.402 99.6649 189.846 99.7737ZM191.574 93.9189C193.269 93.8004 194.55 93.2416 195.419 92.2426C196.285 91.209 196.661 89.8796 196.547 88.2542L196.485 87.3724L195.396 87.4485C190.105 87.8185 187.542 89.1793 187.706 91.5309C187.769 92.43 188.179 93.079 188.937 93.4778C189.692 93.842 190.571 93.989 191.574 93.9189ZM212.274 110.09L209.597 71.8078L217.689 71.242L217.91 74.4062L218.066 74.3954C218.816 73.1961 219.875 72.1838 221.242 71.3584C222.643 70.5306 224.243 70.0539 226.042 69.9281C229.673 69.6742 232.705 70.8001 235.139 73.3057C237.606 75.7744 238.969 78.8761 239.23 82.611C239.496 86.4151 238.6 89.7444 236.541 92.599C234.514 95.4166 231.633 96.9559 227.898 97.2171C226.307 97.3284 224.781 97.1223 223.319 96.599C221.856 96.0411 220.687 95.2366 219.815 94.1856L219.711 94.1928L220.781 109.495L212.274 110.09ZM225.381 90.3038C227.283 90.1708 228.724 89.4098 229.705 88.0207C230.685 86.6316 231.111 85.0206 230.983 83.1878C230.857 81.3895 230.213 79.8881 229.052 78.6835C227.888 77.4443 226.355 76.8912 224.453 77.0242C222.62 77.1524 221.163 77.932 220.081 79.3629C219.034 80.7914 218.571 82.3702 218.692 84.0993C218.816 85.863 219.495 87.3793 220.731 88.6482C221.998 89.8801 223.549 90.432 225.381 90.3038ZM253.32 95.3352C251.799 95.4416 250.348 95.3171 248.968 94.9619C247.62 94.5696 246.382 93.77 245.255 92.563C244.128 91.356 243.498 89.8015 243.365 87.8995C242.959 82.0896 248.289 78.7978 259.355 78.024L259.326 77.609C259.242 76.3986 258.745 75.5124 257.837 74.9504C256.927 74.3538 255.78 74.1039 254.397 74.2006C252.045 74.365 249.98 75.3956 248.201 77.2923L243.573 72.9766C246.447 69.8565 250.185 68.1356 254.784 67.814C259.038 67.5166 262.157 68.3931 264.142 70.4436C266.125 72.4595 267.283 75.8537 267.617 80.626L268.527 93.6462L260.746 94.1903L260.554 91.4411L260.399 91.4519C259.849 92.5329 258.921 93.4318 257.616 94.1486C256.308 94.8308 254.876 95.2263 253.32 95.3352ZM255.048 89.4804C256.743 89.3619 258.024 88.8031 258.892 87.8041C259.758 86.7705 260.135 85.441 260.021 83.8157L259.959 82.9338L258.87 83.01C253.579 83.38 251.016 84.7408 251.18 87.0924C251.243 87.9915 251.653 88.6405 252.411 89.0393C253.166 89.4035 254.045 89.5505 255.048 89.4804ZM280.324 92.8214L278.974 73.5245L271.245 74.065L270.788 67.5289L294.806 65.8495L295.263 72.3855L287.533 72.926L288.883 92.2228L280.324 92.8214ZM334.009 89.0673L325.294 89.6767L323.408 62.7026L316.931 68.4725L311.986 62.6151L323.452 52.8996L331.441 52.341L334.009 89.0673Z" fill="#8049C7"/>
</svg>
