<svg width="383" height="156" viewBox="0 0 383 156" fill="none" xmlns="http://www.w3.org/2000/svg">
<rect x="4.78637" y="23.6787" width="368" height="128" transform="rotate(-3 4.78637 23.6787)" stroke="#169AE4" stroke-width="8" stroke-linejoin="round"/>
<path d="M45.4451 103.66L43.5183 66.8948L75.4025 65.2239L77.3294 101.989L68.4495 102.455L66.9173 73.2189L52.7927 73.9591L54.3249 103.195L45.4451 103.66ZM85.0846 114.08L83.0761 75.7567L91.177 75.3321L91.343 78.4998L91.4988 78.4916C92.2698 77.3057 93.3459 76.312 94.7272 75.5106C96.1431 74.7074 97.7512 74.2586 99.5514 74.1643C103.186 73.9738 106.199 75.1524 108.589 77.7001C111.012 80.2114 112.321 83.3365 112.517 87.0754C112.716 90.8835 111.762 94.1967 109.653 97.0149C107.577 99.7967 104.67 101.286 100.931 101.481C99.3384 101.565 97.8162 101.332 96.3641 100.784C94.9103 100.2 93.7562 99.3754 92.9019 98.3094L92.798 98.3148L93.6009 113.634L85.0846 114.08ZM98.5356 94.5253C100.44 94.4255 101.894 93.6898 102.898 92.318C103.902 90.9462 104.356 89.3429 104.26 87.5081C104.166 85.7079 103.548 84.1955 102.408 82.9708C101.266 81.7115 99.7429 81.1318 97.8389 81.2316C96.0041 81.3277 94.5335 82.0817 93.4272 83.4936C92.3556 84.9036 91.8651 86.4741 91.9558 88.205C92.0483 89.9706 92.7012 91.4985 93.9144 92.7888C95.1604 94.0426 96.7008 94.6215 98.5356 94.5253ZM131.534 99.9818C127.484 100.194 124.028 99.1602 121.166 96.8802C118.337 94.5637 116.811 91.2938 116.59 87.0702C116.372 82.9159 117.513 79.5062 120.011 76.8411C122.543 74.1396 125.816 72.6836 129.832 72.4732C133.709 72.27 136.909 73.3694 139.43 75.7714C141.949 78.1388 143.323 81.5035 143.552 85.8655C143.601 86.8002 143.619 87.4762 143.606 87.8934L124.86 88.8759C125.071 90.2534 125.807 91.3778 127.067 92.249C128.328 93.1202 129.737 93.515 131.295 93.4333C133.788 93.3027 135.645 92.3028 136.866 90.4337L142.982 93.8623C140.647 97.6644 136.831 99.7042 131.534 99.9818ZM124.582 83.5792L135.539 83.0049C135.465 81.5855 134.953 80.4321 134.004 79.5445C133.089 78.6552 131.819 78.2531 130.192 78.3384C128.599 78.4219 127.274 78.9773 126.217 80.0047C125.16 81.0321 124.615 82.2236 124.582 83.5792ZM149.494 98.2074L148.139 72.3469L173.688 71.0079L175.043 96.8684L166.475 97.3175L165.463 78L157.05 78.4409L158.063 97.7584L149.494 98.2074ZM189.518 96.7347C187.995 96.8145 186.547 96.6648 185.173 96.2855C183.832 95.8698 182.609 95.0487 181.503 93.8222C180.397 92.5957 179.794 91.0304 179.695 89.1264C179.39 83.3104 184.777 80.1121 195.855 79.5315L195.833 79.1161C195.769 77.9044 195.289 77.0097 194.39 76.4319C193.49 75.8195 192.348 75.5496 190.963 75.6221C188.609 75.7455 186.526 76.7399 184.715 78.6052L180.163 74.2095C183.091 71.14 186.858 69.4846 191.462 69.2433C195.72 69.0201 198.824 69.951 200.773 72.0358C202.72 74.086 203.819 77.4999 204.07 82.2773L204.753 95.3114L196.963 95.7197L196.819 92.9674L196.663 92.9756C196.095 94.0468 195.152 94.9294 193.834 95.6233C192.515 96.2826 191.076 96.653 189.518 96.7347ZM191.348 90.9109C193.044 90.822 194.335 90.2857 195.221 89.302C196.105 88.2837 196.504 86.961 196.419 85.3339L196.373 84.4511L195.282 84.5083C189.986 84.7859 187.399 86.1017 187.522 88.4558C187.569 89.3559 187.968 90.0119 188.719 90.4239C189.468 90.8012 190.344 90.9636 191.348 90.9109ZM211.762 107.441L209.754 69.1178L217.855 68.6932L218.021 71.8609L218.177 71.8527C218.948 70.6668 220.024 69.6731 221.405 68.8717C222.821 68.0685 224.429 67.6197 226.229 67.5254C229.864 67.3349 232.877 68.5135 235.267 71.0612C237.689 73.5725 238.999 76.6976 239.195 80.4365C239.394 84.2446 238.44 87.5578 236.331 90.376C234.255 93.1578 231.348 94.6467 227.609 94.8426C226.016 94.9261 224.494 94.6934 223.042 94.1447C221.588 93.5613 220.434 92.7365 219.58 91.6705L219.476 91.6759L220.279 106.995L211.762 107.441ZM225.213 87.8864C227.117 87.7866 228.572 87.0509 229.576 85.6791C230.58 84.3073 231.034 82.704 230.938 80.8692C230.844 79.069 230.226 77.5566 229.086 76.3319C227.944 75.0726 226.421 74.4929 224.517 74.5927C222.682 74.6888 221.211 75.4428 220.105 76.8547C219.033 78.2647 218.543 79.8352 218.634 81.5661C218.726 83.3317 219.379 84.8596 220.592 86.1499C221.838 87.4037 223.378 87.9826 225.213 87.8864ZM253.06 93.4046C251.537 93.4844 250.088 93.3347 248.715 92.9554C247.374 92.5397 246.15 91.7186 245.045 90.4921C243.939 89.2656 243.336 87.7004 243.236 85.7963C242.932 79.9803 248.318 76.782 259.396 76.2014L259.375 75.786C259.311 74.5743 258.83 73.6796 257.932 73.1018C257.032 72.4894 255.89 72.2195 254.505 72.292C252.151 72.4154 250.068 73.4098 248.257 75.2752L243.704 70.8794C246.633 67.8099 250.4 66.1545 255.004 65.9132C259.262 65.69 262.366 66.6209 264.315 68.7057C266.262 70.756 267.361 74.1698 267.611 78.9472L268.294 91.9814L260.505 92.3896L260.361 89.6373L260.205 89.6455C259.636 90.7167 258.693 91.5993 257.376 92.2932C256.056 92.9525 254.618 93.323 253.06 93.4046ZM254.89 87.5809C256.586 87.492 257.877 86.9557 258.763 85.972C259.647 84.9536 260.046 83.6309 259.961 82.0038L259.915 81.121L258.824 81.1782C253.527 81.4558 250.941 82.7716 251.064 85.1257C251.111 86.0258 251.51 86.6818 252.261 87.0938C253.009 87.4711 253.886 87.6335 254.89 87.5809ZM280.103 91.3625L279.091 72.045L271.354 72.4505L271.011 65.9075L295.054 64.6474L295.397 71.1904L287.659 71.5959L288.672 90.9134L280.103 91.3625ZM340.545 88.1949L313.957 89.5883L313.576 82.3182L327.228 68.5849C329.136 66.5756 330.041 64.6363 329.943 62.7669C329.874 61.4513 329.404 60.4172 328.531 59.6645C327.657 58.8772 326.527 58.5198 325.142 58.5924C323.723 58.6668 322.573 59.2478 321.693 60.3353C320.811 61.3883 320.327 62.7501 320.241 64.4209L311.82 63.7166C312.045 60.0599 313.418 57.1066 315.938 54.857C318.457 52.5727 321.551 51.3344 325.221 51.1421C328.89 50.9498 332.074 51.7549 334.772 53.5575C337.47 55.3601 338.914 58.0789 339.105 61.7139C339.228 64.068 338.78 66.105 337.759 67.8248C336.773 69.5427 335.273 71.3918 333.259 73.3719L325.14 81.3998L340.147 80.6133L340.545 88.1949Z" fill="#169AE4"/>
</svg>
